<svg width="612" height="213" viewBox="0 0 612 213" fill="none" xmlns="http://www.w3.org/2000/svg">
<path d="M6.25 44.3906V159H50.7812C66.5104 159 79.974 153.401 91.1719 142.203C102.37 130.432 107.943 116.943 107.891 101.734C107.891 86.474 102.318 72.9583 91.1719 61.1875C79.974 49.9896 66.5104 44.3906 50.7812 44.3906H6.25ZM29.1406 68.2969H50.7812C59.9479 68.2969 67.7865 71.5521 74.2969 78.0625C80.8073 84.9375 84.0625 92.8281 84.0625 101.734C84.0625 110.589 80.8073 118.453 74.2969 125.328C67.7865 131.839 59.9479 135.094 50.7812 135.094H29.1406V68.2969ZM167.3 44.3125C156.519 44.3125 147.899 46.6042 141.441 51.1875C134.982 55.7188 130.659 61.2917 128.472 67.9062C126.336 74.4688 126.336 81.0573 128.472 87.6719C130.659 94.2344 134.982 99.8073 141.441 104.391C147.899 108.922 156.519 111.188 167.3 111.188L180.113 111.109C186.519 111.109 190.842 113.115 193.081 117.125C195.321 121.135 195.373 125.146 193.238 129.156C191.154 133.115 186.779 135.094 180.113 135.094H134.253V159H180.113C190.738 159 199.227 156.552 205.581 151.656C211.935 146.76 216.154 140.797 218.238 133.766C220.373 126.682 220.373 119.599 218.238 112.516C216.154 105.432 211.935 99.4688 205.581 94.625C199.227 89.7292 190.738 87.2812 180.113 87.2812H167.3C160.842 87.2812 156.493 85.6927 154.253 82.5156C152.066 79.3385 152.04 76.1615 154.175 72.9844C156.31 69.7552 160.685 68.1406 167.3 68.1406H202.613V44.3125H167.3ZM304.869 159H331.119L314.4 129.312C317.421 127.49 320.155 125.328 322.603 122.828C328.384 116.891 332.212 109.938 334.087 101.969C336.015 94 336.015 86.0312 334.087 78.0625C332.212 70.0417 328.384 63.0885 322.603 57.2031C314.114 48.6615 303.879 44.3906 291.9 44.3906H266.509H254.322H243.619V159H266.509V135.641H291.666L304.869 159ZM266.509 111.734V68.2969H291.9C297.265 68.2969 301.874 70.224 305.728 74.0781C309.686 78.7135 311.666 84.026 311.666 90.0156C311.666 96.0052 309.686 101.318 305.728 105.953C301.874 109.807 297.265 111.734 291.9 111.734H266.509ZM359.156 44.3906V159H382.047V135.641H407.438C419.417 135.641 429.651 131.37 438.141 122.828C443.922 116.891 447.75 109.938 449.625 101.969C451.552 94 451.552 86.0312 449.625 78.0625C447.75 70.0417 443.922 63.0885 438.141 57.2031C429.651 48.6615 419.417 44.3906 407.438 44.3906H359.156ZM382.047 68.2969H407.438C412.802 68.2969 417.411 70.224 421.266 74.0781C425.224 78.7135 427.203 84.026 427.203 90.0156C427.203 96.0052 425.224 101.318 421.266 105.953C417.411 109.807 412.802 111.734 407.438 111.734H382.047V68.2969Z" fill="white"/>
<circle cx="572" cy="55" r="15" fill="#ECF0F1"/>
<circle cx="492" cy="101" r="15" fill="#ECF0F1"/>
<circle cx="572" cy="147" r="15" fill="#ECF0F1"/>
<circle cx="597" cy="101" r="15" fill="#ECF0F1"/>
<path d="M525.99 68.4808C518.816 72.6229 509.642 70.1648 505.5 62.9904C501.358 55.816 503.816 46.6421 510.99 42.5C518.165 38.3579 527.339 40.816 531.481 47.9904C535.623 55.1648 533.165 64.3386 525.99 68.4808Z" fill="#19BC9B"/>
<path d="M552.245 113.955C545.071 118.098 535.897 115.639 531.755 108.465C527.613 101.291 530.071 92.1168 537.245 87.9747C544.42 83.8326 553.593 86.2907 557.736 93.4651C561.878 100.639 559.42 109.813 552.245 113.955Z" fill="#19BC9B"/>
<path d="M555.443 93.7366C538.774 81.235 533.097 71.4007 530.604 50.7141C530.518 49.9975 529.727 49.5913 529.102 49.9521L508.588 61.796C507.963 62.1568 507.919 63.0448 508.497 63.4779C525.166 75.9795 530.844 85.8137 533.336 106.5C533.422 107.217 534.213 107.623 534.838 107.262L555.352 95.4185C555.977 95.0576 556.021 94.1696 555.443 93.7366Z" fill="#19BC9B" stroke="#19BC9B" stroke-width="3" stroke-linecap="round"/>
<path d="M525.99 133.975C518.816 129.833 509.642 132.291 505.5 139.465C501.358 146.639 503.816 155.813 510.99 159.955C518.165 164.098 527.339 161.639 531.481 154.465C535.623 147.291 533.165 138.117 525.99 133.975Z" fill="#19BC9B"/>
<path d="M552.245 88.5C545.071 84.3579 535.897 86.816 531.755 93.9904C527.613 101.165 530.071 110.339 537.245 114.481C544.42 118.623 553.593 116.165 557.736 108.99C561.878 101.816 559.42 92.6421 552.245 88.5Z" fill="#19BC9B"/>
<path d="M555.443 108.719C538.774 121.22 533.097 131.055 530.604 151.741C530.518 152.458 529.727 152.864 529.102 152.503L508.588 140.659C507.963 140.299 507.919 139.411 508.497 138.978C525.166 126.476 530.844 116.642 533.336 95.9551C533.422 95.2385 534.213 94.8323 534.838 95.1931L555.352 107.037C555.977 107.398 556.021 108.286 555.443 108.719Z" fill="#19BC9B" stroke="#19BC9B" stroke-width="3" stroke-linecap="round"/>
</svg>
